<svg id="レイヤー_1" data-name="レイヤー 1" xmlns="http://www.w3.org/2000/svg" width="100" height="100" viewBox="0 0 100 100"><title>icon</title><path d="M88.971,31.641A23.9825,23.9825,0,0,0,66.0457,10.6777q-15.9829-.6108-31.9658,0c-9.3657-1.22-22.4844,10.4248-22.895,19.9644a181.1214,181.1214,0,0,0-.0942,37.9595c.6138,10.04,12.3965,20.9976,23.4473,20.9961,10.3311-.0015,20.6626.0781,30.9927-.019,11.8867-.1118,23.6958-11.8784,23.5269-21.97A191.7421,191.7421,0,0,0,88.971,31.641ZM70.6075,67.7055c-1.4048,5.7007-4.8057,10.1294-11.2651,11.0522l-.002,0a21.0833,21.0833,0,0,1-16.811-.9453c-1.65-.833-3.1729-1.9712-4.9565-.3647a2.2867,2.2867,0,0,1-3.4219.0015,11.9376,11.9376,0,0,1-2.5864-1.4058c-1.5391-1.4053-3.5259-2.7256-2.0449-5.3633,1.3174-2.3452,3.7046-2.9033,5.5518-1.8306,6.3755,3.7036,4.7554-1.11,4.7334-4.2017-.0107-1.4678.104-3.0063-.7822-4.3369-.8081-.4546-.7588-1.0332-.2427-1.6792.0864-8.2017-.8-16.5054,2.47-24.5986.5273.4316.853.9175,1.26,1,6.5137,1.3179,2.9629,5.51,2.5039,8.7729a77.41,77.41,0,0,0-.24,16.8823,87.3784,87.3784,0,0,1-.1582,9.4277c-.0527,1.71-2.6108,3.0981-1.0234,4.9087a10.4343,10.4343,0,0,0,6.9526,3.5024,13.1744,13.1744,0,0,0,6.3652-.6489c4.416-2.9146,5.8286-7.2651,5.8672-12.2725a16.1879,16.1879,0,0,1-.0073-7.959c-1.0146-7.34-1.4941-7.7725-8.37-8.1714-1.9526-.1133-4.6206-.1753-4.2319-2.8848.3628-2.53,3.1118-2.5513,4.8892-1.793,5.2666,2.2456,5.8706-1.4321,6.6533-4.9a17.8567,17.8567,0,0,0,.2236-3.9683c-.0327-7.4019-2.687-11.8555-7.9639-13.4331C48.7277,20.9291,41.8712,23.5927,38.233,28.61c-.0977.1343-.2651.2759-.2651.4141a3.0183,3.0183,0,0,1-2.4448,2.7227c-1.5635.1274-.2031-2.3818-1.6807-2.9087-.41.2422-.6367.11-.7041-.3462-3.3232-1.938-.5693-3.0088.74-3.7915,4.3555-2.6035,9.2378-3.8569,14.1362-5.0034a1.168,1.168,0,0,1,1.8286-.1343q.5156.0007,1.0317.001a1.1812,1.1812,0,0,1,1.8379.1274c7.7427,1.5132,14.0391,4.7666,15.97,13.272a5.4971,5.4971,0,0,1,.084,5.4648c-1.4546,3.3623-1.9209,7.3726-7.1719,9.0415C70.65,52.2133,72.6544,59.4,70.6075,67.7055Z"/></svg>