<svg id="レイヤー_1" data-name="レイヤー 1" xmlns="http://www.w3.org/2000/svg" width="215.6121" height="131.8051" viewBox="0 0 215.6121 131.8051"><defs><style>.cls-1{fill:#040000;}</style></defs><title>sozai-1</title><metadata><?xpacket begin="﻿" id="W5M0MpCehiHzreSzNTczkc9d"?>
<x:xmpmeta xmlns:x="adobe:ns:meta/" x:xmptk="Adobe XMP Core 5.6-c137 79.159547, 2016/07/07-11:39:24        ">
   <rdf:RDF xmlns:rdf="http://www.w3.org/1999/02/22-rdf-syntax-ns#">
      <rdf:Description rdf:about=""
            xmlns:dc="http://purl.org/dc/elements/1.1/"
            xmlns:xmpMM="http://ns.adobe.com/xap/1.0/mm/"
            xmlns:stEvt="http://ns.adobe.com/xap/1.0/sType/ResourceEvent#"
            xmlns:xmp="http://ns.adobe.com/xap/1.0/">
         <dc:title>
            <rdf:Alt>
               <rdf:li xml:lang="x-default">sozai-1</rdf:li>
            </rdf:Alt>
         </dc:title>
         <xmpMM:PreservedFileName>sozai-1_logo.svg</xmpMM:PreservedFileName>
         <xmpMM:InstanceID>xmp.iid:9eca7b61-1730-4b84-8350-5bb4418e0d61</xmpMM:InstanceID>
         <xmpMM:DocumentID>xmp.did:9eca7b61-1730-4b84-8350-5bb4418e0d61</xmpMM:DocumentID>
         <xmpMM:OriginalDocumentID>xmp.did:9eca7b61-1730-4b84-8350-5bb4418e0d61</xmpMM:OriginalDocumentID>
         <xmpMM:History>
            <rdf:Seq>
               <rdf:li>
                  <rdf:Description>
                     <stEvt:action>saved</stEvt:action>
                     <stEvt:instanceID>xmp.iid:9eca7b61-1730-4b84-8350-5bb4418e0d61</stEvt:instanceID>
                     <stEvt:when>2017-08-04T17:40:34+09:00</stEvt:when>
                     <stEvt:softwareAgent>Adobe Bridge CC 2017 (Macintosh)</stEvt:softwareAgent>
                     <stEvt:changed>/metadata</stEvt:changed>
                  </rdf:Description>
               </rdf:li>
            </rdf:Seq>
         </xmpMM:History>
         <xmp:MetadataDate>2017-08-04T17:40:34+09:00</xmp:MetadataDate>
      </rdf:Description>
   </rdf:RDF>
</x:xmpmeta>
                                                                                                    
                                                                                                    
                                                                                                    
                                                                                                    
                                                                                                    
                                                                                                    
                                                                                                    
                                                                                                    
                                                                                                    
                                                                                                    
                                                                                                    
                                                                                                    
                                                                                                    
                                                                                                    
                                                                                                    
                                                                                                    
                                                                                                    
                                                                                                    
                                                                                                    
                                                                                                    
                           
<?xpacket end="w"?></metadata>
<path class="cls-1" d="M.0021,100.9293a10.23,10.23,0,0,1,.84-4.27,8.91,8.91,0,0,1,2.22-3.06,9.6,9.6,0,0,1,3.09-1.83,10,10,0,0,1,6.91,0,9.62,9.62,0,0,1,3.09,1.83,8.92,8.92,0,0,1,2.27,3.05,10.22,10.22,0,0,1,.84,4.27v21.13a10.17,10.17,0,0,1-.84,4.3,9,9,0,0,1-2.22,3,9.56,9.56,0,0,1-3.09,1.83,10,10,0,0,1-6.91,0,9.54,9.54,0,0,1-3.09-1.83,9,9,0,0,1-2.22-3,10.18,10.18,0,0,1-.84-4.3Zm5.73,21.13a3.81,3.81,0,0,0,1.15,3.06,4.06,4.06,0,0,0,2.73,1,4.06,4.06,0,0,0,2.73-1,3.81,3.81,0,0,0,1.15-3.06v-21.13a3.81,3.81,0,0,0-1.15-3.06,4.27,4.27,0,0,0-5.45,0,3.81,3.81,0,0,0-1.15,3.06Z"/><path class="cls-1" d="M34.4221,91.4793h9.2q10.12,0,10.12,11.75a14.85,14.85,0,0,1-1.1,6,8.47,8.47,0,0,1-3.85,4l6.18,18.27h-6.07l-5.34-17.09h-3.43v17.09h-5.71Zm5.73,17.87h3.27a5.77,5.77,0,0,0,2.42-.42,3.11,3.11,0,0,0,1.38-1.21,5.16,5.16,0,0,0,.65-1.94,21.21,21.21,0,0,0,0-5.34,4.82,4.82,0,0,0-.7-2,3.19,3.19,0,0,0-1.49-1.21,6.78,6.78,0,0,0-2.53-.39h-3Z"/><rect class="cls-1" x="70.8821" y="91.4793" width="5.73" height="40.02"/><path class="cls-1" d="M94.2021,100.9293a10.23,10.23,0,0,1,.84-4.27,8.91,8.91,0,0,1,2.22-3.06,9.6,9.6,0,0,1,3.09-1.83,10,10,0,0,1,6.91,0,9.62,9.62,0,0,1,3.09,1.83,8.92,8.92,0,0,1,2.22,3.06,10.22,10.22,0,0,1,.84,4.27v2h-5.73v-2a3.81,3.81,0,0,0-1.15-3.06,4.27,4.27,0,0,0-5.45,0,3.81,3.81,0,0,0-1.15,3.06v21.13a3.81,3.81,0,0,0,1.15,3.06,4.27,4.27,0,0,0,5.45,0,3.81,3.81,0,0,0,1.15-3.06v-7.53h-4.55v-5.06h10.29v12.59a10.17,10.17,0,0,1-.84,4.3,9,9,0,0,1-2.22,3,9.56,9.56,0,0,1-3.09,1.83,10,10,0,0,1-6.91,0,9.54,9.54,0,0,1-3.09-1.83,9,9,0,0,1-2.22-3,10.18,10.18,0,0,1-.84-4.3Z"/><path class="cls-1" d="M137.2021,91.4793h4.78l8.94,40h-5.73l-1.69-8.6h-7.81l-1.69,8.6h-5.73Zm2.42,11.52h-.11l-2.81,14.5h5.72Z"/><polygon class="cls-1" points="166.092 91.479 171.602 91.479 178.972 112.669 179.082 112.669 186.392 91.479 191.952 91.479 191.952 131.499 186.222 131.499 186.222 107.169 186.102 107.169 180.432 124.369 177.562 124.369 171.942 107.169 171.832 107.169 171.832 131.499 166.092 131.499 166.092 91.479"/><rect class="cls-1" x="209.8821" y="91.4793" width="5.73" height="40.02"/><path class="cls-1" d="M54.3021,41.3793a5.3428,5.3428,0,0,0-6.5905-.76l-8.8895-8.8895v-19.52a1.24,1.24,0,0,0-2.48,0v17.04l-11.7-11.7a1.24,1.24,0,1,0-1.75,1.75L36.342,32.755V44.7989a5.3483,5.3483,0,1,0,6.59,5.2305v-.03h-.03a5.3406,5.3406,0,0,0-4.08-5.1818V35.236l7.14,7.1434a5.3438,5.3438,0,1,0,8.34-1Zm-13.88,8.62a2.87,2.87,0,1,1-2.9131-2.8657c.0258.0016.0477.0149.0739.0149.0186,0,.034-.01.0524-.0106A2.8754,2.8754,0,0,1,40.4221,49.9993ZM52.543,47.1981a2.87,2.87,0,1,1-.0009-4.0588A2.87,2.87,0,0,1,52.543,47.1981Z"/><path class="cls-1" d="M192.7221,19.3093a1.24,1.24,0,1,0-1.75-1.75l-11.7,11.6951V12.2093a1.24,1.24,0,0,0-2.48,0V31.7334l-8.8869,8.8832a5.3466,5.3466,0,1,0,1.7538,1.7559l7.1331-7.1331v9.5688a5.35,5.35,0,1,0,2.48,0V32.7593Zm-25.58,27.8879a2.87,2.87,0,1,1-.0009-4.0588A2.87,2.87,0,0,1,167.1418,47.1972Zm13.76,2.8021a2.87,2.87,0,1,1-2.9271-2.8643c.0208.001.0384.012.0594.0119s.0372-.0107.0573-.0117A2.8666,2.8666,0,0,1,180.902,49.9993Z"/><path class="cls-1" d="M86.3121,21.0793l-.89-.88-9.9,9.92a1.24,1.24,0,0,0,1.27,2.05l8.9-3,12.73,25.53a1.24,1.24,0,0,0,1.11.69h19.89a1.24,1.24,0,0,0,1.11-.69l13.23-26.45,6.57-13.25a1.24,1.24,0,0,0-2.05-1.36l-18.32,21.36-9.31-34.09a1.24,1.24,0,0,0-2.39,0l-9.28,34-11.7-14.61a1.24,1.24,0,0,0-1.86-.1l.88.88-1,.77,13.23,16.53a1.24,1.24,0,0,0,2.16-.45l8.73-31.93,8.72,32a1.24,1.24,0,0,0,2.14.48l13.28-15.5-2.11,4.22-12.84,25.7h-18.3l-12.89-25.76a1.24,1.24,0,0,0-1.5-.62l-4.94,1.65,6.21-6.17-.88-.88-1,.77Z"/></svg>