<svg xmlns="http://www.w3.org/2000/svg" viewBox="0 0 215.62 40.7"><defs><style>.cls-1{fill:#040000;}</style></defs><title>logo5</title><g id="レイヤー_2" data-name="レイヤー 2"><g id="logo"><path class="cls-1" d="M0,9.78A10.23,10.23,0,0,1,.84,5.51,8.91,8.91,0,0,1,3.06,2.45,9.6,9.6,0,0,1,6.15.62a10,10,0,0,1,6.91,0,9.62,9.62,0,0,1,3.09,1.83,8.92,8.92,0,0,1,2.22,3.06,10.22,10.22,0,0,1,.84,4.27V30.92a10.17,10.17,0,0,1-.84,4.3,9,9,0,0,1-2.22,3,9.56,9.56,0,0,1-3.09,1.83,10,10,0,0,1-6.91,0,9.54,9.54,0,0,1-3.09-1.83,9,9,0,0,1-2.22-3A10.18,10.18,0,0,1,0,30.92ZM5.73,30.92A3.81,3.81,0,0,0,6.88,34a4.06,4.06,0,0,0,2.73,1,4.06,4.06,0,0,0,2.73-1,3.81,3.81,0,0,0,1.15-3.06V9.78a3.81,3.81,0,0,0-1.15-3.06,4.07,4.07,0,0,0-2.73-1,4.07,4.07,0,0,0-2.73,1A3.81,3.81,0,0,0,5.73,9.78Z"/><path class="cls-1" d="M34.4.34h9.22q10.12,0,10.12,11.75a14.85,14.85,0,0,1-1.1,6,8.47,8.47,0,0,1-3.85,4L55,40.36H48.9L43.56,23.27H40.13V40.36H34.4Zm5.73,17.87h3.26a5.77,5.77,0,0,0,2.42-.42,3.11,3.11,0,0,0,1.38-1.21,5.16,5.16,0,0,0,.65-1.94A18.55,18.55,0,0,0,48,12a18.56,18.56,0,0,0-.17-2.67,4.82,4.82,0,0,0-.7-2,3.19,3.19,0,0,0-1.49-1.21,6.78,6.78,0,0,0-2.53-.39h-3Z"/><rect class="cls-1" x="70.88" y="0.34" width="5.73" height="40.02"/><path class="cls-1" d="M94.21,9.78A10.23,10.23,0,0,1,95,5.51a8.91,8.91,0,0,1,2.22-3.06A9.6,9.6,0,0,1,100.36.62a10,10,0,0,1,6.91,0,9.62,9.62,0,0,1,3.09,1.83,8.92,8.92,0,0,1,2.22,3.06,10.22,10.22,0,0,1,.84,4.27v2H107.7v-2a3.81,3.81,0,0,0-1.15-3.06,4.27,4.27,0,0,0-5.45,0,3.81,3.81,0,0,0-1.15,3.06V30.92A3.81,3.81,0,0,0,101.09,34a4.27,4.27,0,0,0,5.45,0,3.81,3.81,0,0,0,1.15-3.06V23.38h-4.55V18.32h10.29V30.92a10.17,10.17,0,0,1-.84,4.3,9,9,0,0,1-2.22,3,9.56,9.56,0,0,1-3.09,1.83,10,10,0,0,1-6.91,0,9.54,9.54,0,0,1-3.09-1.83,9,9,0,0,1-2.22-3,10.18,10.18,0,0,1-.84-4.3Z"/><path class="cls-1" d="M137.21.34H142l8.94,40h-5.73l-1.69-8.6h-7.81L134,40.36h-5.73Zm2.42,11.52h-.11l-2.81,14.5h5.73Z"/><polygon class="cls-1" points="166.1 0.34 171.6 0.34 178.97 21.53 179.08 21.53 186.39 0.34 191.95 0.34 191.95 40.36 186.22 40.36 186.22 16.02 186.11 16.02 180.43 33.22 177.56 33.22 171.94 16.02 171.83 16.02 171.83 40.36 166.1 40.36 166.1 0.34"/><rect class="cls-1" x="209.88" y="0.34" width="5.73" height="40.02"/></g></g></svg>