<svg id="レイヤー_1" data-name="レイヤー 1" xmlns="http://www.w3.org/2000/svg" width="100" height="100" viewBox="0 0 100 100"><defs><style>.cls-1{fill:#fff;}</style></defs><title>icon</title><path class="cls-1" d="M89.701,16.5H10.3a6.5015,6.5015,0,0,0-6.5,6.4992V77.0008A6.5014,6.5014,0,0,0,10.299,83.5H89.701A6.5014,6.5014,0,0,0,96.2,77.0008V22.9992A6.5014,6.5014,0,0,0,89.701,16.5ZM89.2,76.5H10.8V42.2179C14.679,44.9147,20.4332,48.9,26.2764,52.89c5.1366,3.5084,10.3365,7.0173,14.4078,9.668,2.0371,1.3262,3.7878,2.4372,5.1458,3.2463l.0007,0c.68.4046,1.2607.7349,1.7784.9993l.0024.0012c.2571.1307.5179.2558.8052.37l.0152.0059a5.29,5.29,0,0,0,.526.1752l.0372.01a4.2442,4.2442,0,0,0,.4855.0953l.0316.0042a3.303,3.303,0,0,0,.4642.0346h.0112L50,67.5007l.0126-.0009h.0111a3.303,3.303,0,0,0,.4642-.0346l.0317-.0042a4.2431,4.2431,0,0,0,.4854-.0953l.0468-.0125a6.0791,6.0791,0,0,0,.9194-.3452L51.9884,67c.4879-.2273.9922-.5046,1.5845-.8455l.0026-.0015c2.2076-1.2778,5.746-3.5717,9.9279-6.3569C71.9934,54.1411,82.997,46.5306,89.2,42.218Zm-78.4-53H89.2V33.66L50,59.7936,10.8,33.66Z"/></svg>