<svg id="レイヤー_1" data-name="レイヤー 1" xmlns="http://www.w3.org/2000/svg" width="100" height="100" viewBox="0 0 100 100"><title>icon</title><path d="M96.2,22.9992A6.5015,6.5015,0,0,0,89.7009,16.5l0,.5v-.5H10.3a6.5017,6.5017,0,0,0-6.5,6.4992V77.001A6.5012,6.5012,0,0,0,10.299,83.5H89.7007A6.5015,6.5015,0,0,0,96.2,77.0013V22.9992ZM10.8,23.5H89.2V33.66L50,59.7936,10.8,33.66Zm78.4,53H10.8V42.2177c3.879,2.6968,9.62,6.6727,15.4769,10.6718,5.1364,3.5089,10.3364,7.018,14.4076,9.6682,2.0372,1.3262,3.7878,2.437,5.1456,3.2468l.1183.0706h.0036c.6119.3619,1.1481.6669,1.6252.9114l.0081.0054.0264.0134c.2537.1288.5128.2531.797.3659l0,0,.0117.0049.0059.0024.0051.002a5.3776,5.3776,0,0,0,.5264.1754l.0065.0018.0345.0085v0a4.35,4.35,0,0,0,.4889.0966l.01.0015.0289.0029v-.0006a3.7229,3.7229,0,0,0,.4206.0309v.0009l.0117.001L50,67.5027l.0533-.0045v-.0009a3.6776,3.6776,0,0,0,.4189-.0308v.0007l.02-.002.01-.001.0106-.0015a4.326,4.326,0,0,0,.4911-.0972v0l.0352-.0088.0065-.0016.0062-.0018a6.1535,6.1535,0,0,0,.92-.3458l-.0036.0016.0132-.0059.0023-.001L51.9893,67c.4809-.2245.9828-.5,1.5671-.8359l.0062-.0031.0132-.0076c2.2071-1.2784,5.7461-3.5716,9.9276-6.3574C72,54.1365,83,46.5286,89.2,42.2178Z"/></svg>