<svg id="レイヤー_1" data-name="レイヤー 1" xmlns="http://www.w3.org/2000/svg" width="100" height="100" viewBox="0 0 100 100"><title>icon</title><polygon points="13.2 26.419 13.201 26.418 13.201 26.418 13.2 26.419"/><polygon points="39.88 82.482 39.881 82.482 39.879 82.481 39.88 82.482"/><polygon points="71.257 57.916 71.254 57.915 71.256 57.916 71.257 57.916"/><polygon points="29.25 39.166 29.251 39.164 29.249 39.168 29.25 39.166"/><polygon points="41.07 37.703 41.076 37.698 41.069 37.704 41.07 37.703"/><path d="M85.8284,81.1716l-18.16-18.16a31.0122,31.0122,0,1,0-5.9172,5.3965l18.42,18.42a4,4,0,1,0,5.6569-5.6569ZM27.7366,59.2636A23.0005,23.0005,0,1,1,44,66,22.91,22.91,0,0,1,27.7366,59.2636Z"/></svg>