<svg id="レイヤー_1" data-name="レイヤー 1" xmlns="http://www.w3.org/2000/svg" width="24.4988" height="41.9817" viewBox="0 0 24.4988 41.9817"><defs><style>.cls-1{fill:#040000;}</style></defs><title>sozai-1</title><path class="cls-1" d="M3.0282,39.5689a1.24,1.24,0,1,0,2.2724.98L11.8566,25.361l6.2926,15.841a1.24,1.24,0,0,0,2.3049-.9156L13.2463,22.1415l4.98-11.5365a5.3466,5.3466,0,1,0-2.2781-.9844l-3.9959,9.2626L8.4194,9.99a5.35,5.35,0,1,0-2.3049.9156l4.4481,11.1978ZM16.506,4.2075a2.87,2.87,0,1,1,1.4993,3.7718A2.87,2.87,0,0,1,16.506,4.2075ZM2.6833,6.6832A2.87,2.87,0,1,1,6.461,8.2645c-.02.0068-.04.0031-.06.0109s-.0306.0236-.0489.032A2.8666,2.8666,0,0,1,2.6833,6.6832Z"/></svg>