<svg id="レイヤー_1" data-name="レイヤー 1" xmlns="http://www.w3.org/2000/svg" width="224.9624" height="73.7964" viewBox="0 0 224.9624 73.7964"><title>sozai-1</title><metadata><?xpacket begin="﻿" id="W5M0MpCehiHzreSzNTczkc9d"?>
<x:xmpmeta xmlns:x="adobe:ns:meta/" x:xmptk="Adobe XMP Core 5.6-c137 79.159547, 2016/07/07-11:39:24        ">
   <rdf:RDF xmlns:rdf="http://www.w3.org/1999/02/22-rdf-syntax-ns#">
      <rdf:Description rdf:about=""
            xmlns:dc="http://purl.org/dc/elements/1.1/"
            xmlns:xmpMM="http://ns.adobe.com/xap/1.0/mm/"
            xmlns:stEvt="http://ns.adobe.com/xap/1.0/sType/ResourceEvent#"
            xmlns:xmp="http://ns.adobe.com/xap/1.0/">
         <dc:title>
            <rdf:Alt>
               <rdf:li xml:lang="x-default">sozai-1</rdf:li>
            </rdf:Alt>
         </dc:title>
         <xmpMM:PreservedFileName>sozai-1_tagline.svg</xmpMM:PreservedFileName>
         <xmpMM:InstanceID>xmp.iid:358acd2c-fbe3-4483-ac90-9ae30b5857c4</xmpMM:InstanceID>
         <xmpMM:DocumentID>xmp.did:358acd2c-fbe3-4483-ac90-9ae30b5857c4</xmpMM:DocumentID>
         <xmpMM:OriginalDocumentID>xmp.did:358acd2c-fbe3-4483-ac90-9ae30b5857c4</xmpMM:OriginalDocumentID>
         <xmpMM:History>
            <rdf:Seq>
               <rdf:li>
                  <rdf:Description>
                     <stEvt:action>saved</stEvt:action>
                     <stEvt:instanceID>xmp.iid:358acd2c-fbe3-4483-ac90-9ae30b5857c4</stEvt:instanceID>
                     <stEvt:when>2017-08-04T17:40:34+09:00</stEvt:when>
                     <stEvt:softwareAgent>Adobe Bridge CC 2017 (Macintosh)</stEvt:softwareAgent>
                     <stEvt:changed>/metadata</stEvt:changed>
                  </rdf:Description>
               </rdf:li>
            </rdf:Seq>
         </xmpMM:History>
         <xmp:MetadataDate>2017-08-04T17:40:34+09:00</xmp:MetadataDate>
      </rdf:Description>
   </rdf:RDF>
</x:xmpmeta>
                                                                                                    
                                                                                                    
                                                                                                    
                                                                                                    
                                                                                                    
                                                                                                    
                                                                                                    
                                                                                                    
                                                                                                    
                                                                                                    
                                                                                                    
                                                                                                    
                                                                                                    
                                                                                                    
                                                                                                    
                                                                                                    
                                                                                                    
                                                                                                    
                                                                                                    
                                                                                                    
                           
<?xpacket end="w"?></metadata>
<polygon points="5.34 49.565 6.26 49.565 6.26 56.335 5.43 56.335 0.91 51.125 0.91 56.335 0 56.335 0 49.565 0.78 49.565 5.34 54.815 5.34 49.565"/><path d="M10.7,49.525h.68l3,6.8h-1l-.9-2H9.64l-.84,2h-1Zm1.42,3.94-1.09-2.45-1,2.45Z"/><path d="M19.65,52.995h2.27v2.87a6.19,6.19,0,0,1-2.48.54,3.68,3.68,0,0,1-2.69-1,3.25,3.25,0,0,1-1-2.42,3.37,3.37,0,0,1,1-2.52,3.6,3.6,0,0,1,2.61-1,4.63,4.63,0,0,1,1.08.12,8.89,8.89,0,0,1,1.3.45v1a4.76,4.76,0,0,0-2.4-.7,2.55,2.55,0,0,0-1.87.76,2.68,2.68,0,0,0,0,3.74,2.71,2.71,0,0,0,2,.73,4.56,4.56,0,0,0,1.39-.27h.09v-1.41h-1.3Z"/><path d="M26.33,49.525h.68l3,6.8h-1l-.9-2H25.22l-.84,2h-1Zm1.42,3.94-1.09-2.45-1,2.45Z"/><polygon points="36.99 49.565 37.91 49.565 37.91 56.335 37.08 56.335 32.56 51.125 32.56 56.335 31.65 56.335 31.65 49.565 32.43 49.565 36.99 54.815 36.99 49.565"/><path d="M43.51,49.465a3.64,3.64,0,0,1,2.61,1,3.29,3.29,0,0,1,1,2.49,3.24,3.24,0,0,1-1.05,2.48,3.74,3.74,0,0,1-2.65,1,3.53,3.53,0,0,1-2.55-1,3.27,3.27,0,0,1-1-2.46,3.34,3.34,0,0,1,1-2.51A3.58,3.58,0,0,1,43.51,49.465Zm0,.92a2.63,2.63,0,0,0-1.91.73,2.47,2.47,0,0,0-.75,1.86,2.43,2.43,0,0,0,.75,1.82,2.78,2.78,0,0,0,3.77,0,2.48,2.48,0,0,0,.76-1.85,2.42,2.42,0,0,0-.71-1.82,2.57,2.57,0,0,0-1.87-.74Z"/><path d="M54.46,53.495l-.74-.45a3.32,3.32,0,0,1-1-.83,1.57,1.57,0,0,1-.29-.94,1.66,1.66,0,0,1,.56-1.3,2.07,2.07,0,0,1,1.44-.5,2.72,2.72,0,0,1,1.55.48v1.1a2.24,2.24,0,0,0-1.57-.7,1.3,1.3,0,0,0-.78.22.67.67,0,0,0-.31.56.86.86,0,0,0,.22.57,2.81,2.81,0,0,0,.72.56l.74.44a2.17,2.17,0,0,1,1.22,1.87,1.72,1.72,0,0,1-.55,1.32,2,2,0,0,1-1.42.51,3,3,0,0,1-1.83-.62v-1.23a2.28,2.28,0,0,0,1.82,1,1.14,1.14,0,0,0,.76-.25.79.79,0,0,0,.3-.63Q55.35,54.055,54.46,53.495Z"/><rect x="58.17" y="49.565" width="0.97" height="6.77"/><polygon points="66.85 49.565 67.77 49.565 67.77 56.335 66.94 56.335 62.41 51.125 62.41 56.335 61.5 56.335 61.5 49.565 62.29 49.565 66.85 54.815 66.85 49.565"/><path d="M75.88,54.765v1.07a5.06,5.06,0,0,1-2.46.58,3.79,3.79,0,0,1-1.92-.46,3.35,3.35,0,0,1-1.28-1.26,3.41,3.41,0,0,1-.46-1.73,3.31,3.31,0,0,1,1.05-2.48,3.62,3.62,0,0,1,2.6-1,6.1,6.1,0,0,1,2.37.56v1a4.66,4.66,0,0,0-2.32-.68,2.68,2.68,0,0,0-1.93.73,2.59,2.59,0,0,0-.0072,3.6628l.0072.0072a2.69,2.69,0,0,0,1.93.72A4.38,4.38,0,0,0,75.88,54.765Z"/><polygon points="77.91 49.565 81.74 49.565 81.74 50.425 78.88 50.425 78.88 52.495 81.65 52.495 81.65 53.355 78.88 53.355 78.88 55.455 81.84 55.455 81.84 56.325 77.91 56.325 77.91 49.565"/><path d="M88.59,55.395h2.58v.93H86.88v-.07l.41-.48a18.9689,18.9689,0,0,0,1.52-2,7.6,7.6,0,0,0,.74-1.24,2.19,2.19,0,0,0,.17-.83,1.29,1.29,0,0,0-.32-.92,1.13,1.13,0,0,0-.86-.35,1.52,1.52,0,0,0-.8.24,2.44,2.44,0,0,0-.71.68v-1.23a2.55,2.55,0,0,1,1.63-.64,1.94,1.94,0,0,1,1.46.59,2.06,2.06,0,0,1,.57,1.5,3,3,0,0,1-.14.87,5.0005,5.0005,0,0,1-.51,1.07,14.39,14.39,0,0,1-1.24,1.61Z"/><path d="M94.85,49.475a1.78,1.78,0,0,1,1.54,1,5.4,5.4,0,0,1,0,5,1.78,1.78,0,0,1-3.15,0,5.49,5.49,0,0,1,0-5A1.84,1.84,0,0,1,94.85,49.475Zm0,.92h0a1,1,0,0,0-.88.69,4.4,4.4,0,0,0-.33,1.86,4.53,4.53,0,0,0,.32,1.88.91.91,0,0,0,1.77,0,4.39,4.39,0,0,0,.32-1.86,4.63,4.63,0,0,0-.31-1.87c-.24-.46-.52-.7-.88-.7Z"/><rect x="100.13" y="49.565" width="0.97" height="6.77"/><polygon points="104.41 49.565 108.79 49.565 105.72 56.405 104.86 56.045 107.33 50.495 104.41 50.495 104.41 49.565"/><path d="M110.8,55.255a.58.58,0,0,1,.42.17.56.56,0,0,1,.17.42.55.55,0,0,1-.17.41.59.59,0,0,1-.42.16.57.57,0,0,1-.42-.16.54.54,0,0,1-.17-.41.58.58,0,0,1,.57-.59Q110.79,55.2548,110.8,55.255Z"/><path d="M122.89,54.765v1.07a5.06,5.06,0,0,1-2.46.58,3.79,3.79,0,0,1-1.92-.46,3.35,3.35,0,0,1-1.25-1.25,3.41,3.41,0,0,1-.46-1.73,3.31,3.31,0,0,1,1.05-2.48,3.62,3.62,0,0,1,2.6-1,6.1,6.1,0,0,1,2.37.56v1a4.66,4.66,0,0,0-2.32-.68,2.68,2.68,0,0,0-1.93.73,2.59,2.59,0,0,0-.0072,3.6628l.0072.0072a2.69,2.69,0,0,0,1.93.72A4.38,4.38,0,0,0,122.89,54.765Z"/><path d="M129.62,49.565h1v3.84a4.56,4.56,0,0,1-.11,1.18,2.5,2.5,0,0,1-.28.66,2.06,2.06,0,0,1-.41.47,3.5711,3.5711,0,0,1-4.22,0,2.16,2.16,0,0,1-.41-.48,2.47,2.47,0,0,1-.28-.65,4.87,4.87,0,0,1-.11-1.2v-3.83h1v3.84a2.85,2.85,0,0,0,.22,1.33,1.55,1.55,0,0,0,.66.6,2.3,2.3,0,0,0,1.05.23,2.13,2.13,0,0,0,1.4-.45,1.4,1.4,0,0,0,.41-.57,3.52,3.52,0,0,0,.13-1.13Z"/><polygon points="132.19 49.555 137.85 49.555 137.85 50.415 135.49 50.415 135.49 56.335 134.51 56.335 134.51 50.415 132.19 50.415 132.19 49.555"/><polygon points="139.02 49.555 144.67 49.555 144.67 50.415 142.31 50.415 142.31 56.335 141.34 56.335 141.34 50.415 139.02 50.415 139.02 49.555"/><rect x="146.43" y="49.565" width="0.97" height="6.77"/><polygon points="155.11 49.565 156.03 49.565 156.03 56.335 155.19 56.335 150.67 51.125 150.67 56.335 149.76 56.335 149.76 49.565 150.54 49.565 155.11 54.815 155.11 49.565"/><path d="M161.97,52.995h2.25v2.87a6.19,6.19,0,0,1-2.48.54,3.68,3.68,0,0,1-2.69-1,3.25,3.25,0,0,1-1-2.42,3.37,3.37,0,0,1,1-2.52,3.6,3.6,0,0,1,2.61-1,4.63,4.63,0,0,1,1.08.12,8.8907,8.8907,0,0,1,1.3.45v1a4.76,4.76,0,0,0-2.4-.7,2.55,2.55,0,0,0-1.87.76,2.68,2.68,0,0,0,0,3.74,2.71,2.71,0,0,0,2,.73,4.56,4.56,0,0,0,1.39-.27h.09v-1.41h-1.3Z"/><polygon points="174.85 49.565 175.81 49.565 175.81 56.335 174.85 56.335 174.85 53.385 171.04 53.385 171.04 56.335 170.07 56.335 170.07 49.565 171.04 49.565 171.04 52.495 174.85 52.495 174.85 49.565"/><path d="M180.3,49.525h.68l3,6.8h-1l-.9-2h-2.86l-.84,2h-1Zm1.42,3.94-1.09-2.45-1,2.45Z"/><rect x="185.6" y="49.565" width="0.97" height="6.77"/><path d="M188.93,56.335v-6.77h1.7a2.45,2.45,0,0,1,1.63.51,1.71,1.71,0,0,1,.6,1.38,1.69,1.69,0,0,1-1.14,1.67,3,3,0,0,1,.63.58,11.6994,11.6994,0,0,1,.87,1.28q.35.58.57.87l.36.48H193l-.3-.45-.06-.08-.19-.27-.3-.49-.32-.53a5.1984,5.1984,0,0,0-.55-.66,2.08,2.08,0,0,0-.45-.36,1.52,1.52,0,0,0-.68-.11h-.25v2.94Zm1.26-5.94h-.29v2.14h.32a2.74,2.74,0,0,0,1-.13,1,1,0,0,0,.43-.38,1.12,1.12,0,0,0,.15-.58,1,1,0,0,0-.17-.58.91.91,0,0,0-.48-.37,3.45,3.45,0,0,0-.93-.11Z"/><rect x="199.32" y="49.565" width="0.97" height="6.77"/><polygon points="208 49.565 208.92 49.565 208.92 56.335 208.09 56.335 203.57 51.125 203.57 56.335 202.66 56.335 202.66 49.565 203.44 49.565 208 54.815 208 49.565"/><polygon points="210.63 49.555 216.28 49.555 216.28 50.415 213.92 50.415 213.92 56.335 212.95 56.335 212.95 50.415 210.63 50.415 210.63 49.555"/><path d="M221.35,49.465a3.64,3.64,0,0,1,2.61,1,3.29,3.29,0,0,1,1,2.49,3.24,3.24,0,0,1-1.05,2.48,3.74,3.74,0,0,1-2.65,1,3.53,3.53,0,0,1-2.55-1,3.27,3.27,0,0,1-1-2.46,3.34,3.34,0,0,1,1-2.51A3.58,3.58,0,0,1,221.35,49.465Zm0,.92a2.63,2.63,0,0,0-1.91.73,2.47,2.47,0,0,0-.75,1.86,2.43,2.43,0,0,0,.75,1.82,2.78,2.78,0,0,0,3.77,0,2.48,2.48,0,0,0,.76-1.85,2.42,2.42,0,0,0-.75-1.82,2.57,2.57,0,0,0-1.83-.74Z"/><polygon points="32.222 66.915 37.872 66.915 37.872 67.775 35.512 67.775 35.512 73.685 34.542 73.685 34.542 67.775 32.222 67.775 32.222 66.915"/><polygon points="44.392 66.925 45.362 66.925 45.362 73.685 44.392 73.685 44.392 70.745 40.592 70.745 40.592 73.685 39.622 73.685 39.622 66.925 40.592 66.925 40.592 69.845 44.392 69.845 44.392 66.925"/><path d="M51.0521,66.825a3.64,3.64,0,0,1,2.61,1,3.29,3.29,0,0,1,1,2.49,3.24,3.24,0,0,1-1.05,2.48,3.74,3.74,0,0,1-2.65,1,3.53,3.53,0,0,1-2.55-1,3.27,3.27,0,0,1-1-2.46,3.34,3.34,0,0,1,1-2.51A3.58,3.58,0,0,1,51.0521,66.825Zm0,.92a2.63,2.63,0,0,0-1.91.73,2.47,2.47,0,0,0-.75,1.86,2.43,2.43,0,0,0,.75,1.82,2.78,2.78,0,0,0,3.77,0,2.48,2.48,0,0,0,.76-1.85,2.42,2.42,0,0,0-.76-1.81A2.57,2.57,0,0,0,51.0521,67.745Z"/><path d="M61.3921,66.925h1v3.84a4.56,4.56,0,0,1-.11,1.18,2.5,2.5,0,0,1-.28.66,2.06,2.06,0,0,1-.41.47,3.5711,3.5711,0,0,1-4.22,0,2.16,2.16,0,0,1-.41-.48,2.47,2.47,0,0,1-.28-.65,4.87,4.87,0,0,1-.11-1.2v-3.82h1v3.84a2.85,2.85,0,0,0,.22,1.33,1.55,1.55,0,0,0,.66.6,2.3,2.3,0,0,0,1.05.23,2.13,2.13,0,0,0,1.4-.45,1.4,1.4,0,0,0,.41-.57,3.52,3.52,0,0,0,.13-1.13Z"/><path d="M66.2221,70.855l-.74-.45a3.32,3.32,0,0,1-1-.83,1.57,1.57,0,0,1-.29-.94,1.66,1.66,0,0,1,.56-1.3,2.07,2.07,0,0,1,1.44-.5,2.72,2.72,0,0,1,1.55.48v1.1a2.24,2.24,0,0,0-1.57-.7,1.3,1.3,0,0,0-.78.22.67.67,0,0,0-.31.56.86.86,0,0,0,.22.57,2.81,2.81,0,0,0,.72.56l.74.44a2.17,2.17,0,0,1,1.29,1.87,1.72,1.72,0,0,1-.55,1.32,2,2,0,0,1-1.42.51,3,3,0,0,1-1.83-.62v-1.22a2.28,2.28,0,0,0,1.82,1,1.14,1.14,0,0,0,.76-.25.79.79,0,0,0,.3-.63Q67.1121,71.405,66.2221,70.855Z"/><path d="M72.0521,66.885h.68l3,6.8h-1l-.9-2h-2.78l-.84,2h-1Zm1.42,3.94-1.09-2.45-1,2.45Z"/><polygon points="82.742 66.925 83.662 66.925 83.662 73.685 82.832 73.685 78.312 68.475 78.312 73.685 77.402 73.685 77.402 66.925 78.182 66.925 82.742 72.175 82.742 66.925"/><path d="M85.9521,73.675v-6.75h2.28a4.81,4.81,0,0,1,2.18.41,3.12,3.12,0,0,1,1.28,1.22,3.39,3.39,0,0,1,.47,1.75,3.34,3.34,0,0,1-2.11,3.12,3.41,3.41,0,0,1-.7.2,9.3988,9.3988,0,0,1-1.22.05Zm2.18-5.89h-1.21v5h1.24a5,5,0,0,0,1.13-.1,2.62,2.62,0,0,0,.67-.25,2.26,2.26,0,0,0,.49-.38,2.51,2.51,0,0,0,.72-1.84,2.32,2.32,0,0,0-.74-1.78,2.37,2.37,0,0,0-.62-.42,2.63,2.63,0,0,0-.67-.22A6.7708,6.7708,0,0,0,88.1321,67.785Z"/><path d="M95.8921,70.855l-.74-.45a3.32,3.32,0,0,1-1-.83,1.57,1.57,0,0,1-.29-.94,1.66,1.66,0,0,1,.56-1.3,2.07,2.07,0,0,1,1.44-.5,2.72,2.72,0,0,1,1.55.48v1.1a2.24,2.24,0,0,0-1.57-.7,1.3,1.3,0,0,0-.78.22.67.67,0,0,0-.31.56.86.86,0,0,0,.22.57,2.81,2.81,0,0,0,.72.56l.74.44a2.17,2.17,0,0,1,1.24,1.88,1.72,1.72,0,0,1-.55,1.32,2,2,0,0,1-1.42.51,3,3,0,0,1-1.83-.62v-1.23a2.28,2.28,0,0,0,1.82,1,1.14,1.14,0,0,0,.76-.25.79.79,0,0,0,.3-.63Q96.7821,71.405,95.8921,70.855Z"/><path d="M103.1921,73.675v-6.75h2.28a4.81,4.81,0,0,1,2.18.41,3.12,3.12,0,0,1,1.28,1.22,3.39,3.39,0,0,1,.47,1.75,3.34,3.34,0,0,1-2.16,3.12,3.41,3.41,0,0,1-.7.2,9.3988,9.3988,0,0,1-1.22.05Zm2.18-5.89h-1.21v5h1.24a5,5,0,0,0,1.13-.1,2.62,2.62,0,0,0,.67-.25,2.26,2.26,0,0,0,.49-.38,2.51,2.51,0,0,0,.72-1.84,2.32,2.32,0,0,0-.74-1.78,2.37,2.37,0,0,0-.62-.42,2.63,2.63,0,0,0-.67-.22A6.7707,6.7707,0,0,0,105.3721,67.785Z"/><polygon points="111.452 66.925 115.292 66.925 115.292 67.785 112.422 67.785 112.422 69.845 115.192 69.845 115.192 70.715 112.422 70.715 112.422 72.815 115.382 72.815 115.382 73.685 111.452 73.685 111.452 66.925"/><path d="M118.9221,70.855l-.74-.45a3.32,3.32,0,0,1-1-.83,1.57,1.57,0,0,1-.29-.94,1.66,1.66,0,0,1,.56-1.3,2.07,2.07,0,0,1,1.44-.5,2.72,2.72,0,0,1,1.55.48v1.1a2.24,2.24,0,0,0-1.57-.7,1.3,1.3,0,0,0-.78.22.67.67,0,0,0-.31.56.86.86,0,0,0,.22.57,2.81,2.81,0,0,0,.72.56l.74.44a2.17,2.17,0,0,1,1.24,1.88,1.72,1.72,0,0,1-.55,1.32,2,2,0,0,1-1.42.51,3,3,0,0,1-1.83-.62v-1.23a2.28,2.28,0,0,0,1.82,1,1.14,1.14,0,0,0,.76-.25.79.79,0,0,0,.3-.63Q119.8121,71.405,118.9221,70.855Z"/><rect x="122.6321" y="66.925" width="0.97" height="6.77"/><path d="M129.5921,70.355h2.27v2.87a6.19,6.19,0,0,1-2.48.54,3.68,3.68,0,0,1-2.69-1,3.25,3.25,0,0,1-1-2.42,3.37,3.37,0,0,1,1-2.52,3.6,3.6,0,0,1,2.61-1,4.63,4.63,0,0,1,1.08.12,8.89,8.89,0,0,1,1.3.45v1a4.76,4.76,0,0,0-2.4-.7,2.55,2.55,0,0,0-1.87.76,2.68,2.68,0,0,0,0,3.74,2.71,2.71,0,0,0,2,.73,4.56,4.56,0,0,0,1.39-.27h.09v-1.41h-1.3Z"/><polygon points="139.492 66.925 140.412 66.925 140.412 73.685 139.582 73.685 135.052 68.475 135.052 73.685 134.142 73.685 134.142 66.925 134.932 66.925 139.492 72.175 139.492 66.925"/><path d="M144.3721,70.855l-.74-.45a3.32,3.32,0,0,1-1-.83,1.57,1.57,0,0,1-.29-.94,1.66,1.66,0,0,1,.56-1.3,2.07,2.07,0,0,1,1.44-.5,2.72,2.72,0,0,1,1.55.48v1.1a2.24,2.24,0,0,0-1.57-.7,1.3,1.3,0,0,0-.78.22.67.67,0,0,0-.31.56.86.86,0,0,0,.22.57,2.81,2.81,0,0,0,.72.56l.74.44a2.17,2.17,0,0,1,1.24,1.88,1.72,1.72,0,0,1-.55,1.32,2,2,0,0,1-1.42.51,3,3,0,0,1-1.83-.62v-1.23a2.28,2.28,0,0,0,1.82,1,1.14,1.14,0,0,0,.76-.25.79.79,0,0,0,.3-.63Q145.2621,71.405,144.3721,70.855Z"/><polygon points="151.662 66.925 152.632 66.925 152.632 72.805 155.672 72.805 155.672 73.685 151.662 73.685 151.662 66.925"/><rect x="157.3621" y="66.925" width="0.97" height="6.77"/><polygon points="164.492 66.925 165.702 66.925 162.772 70.135 166.422 73.685 165.102 73.685 161.642 70.345 161.642 73.685 160.672 73.685 160.672 66.925 161.642 66.925 161.642 70.015 164.492 66.925"/><polygon points="168.002 66.925 171.842 66.925 171.842 67.785 168.972 67.785 168.972 69.845 171.742 69.845 171.742 70.715 168.972 70.715 168.972 72.815 171.932 72.815 171.932 73.685 168.002 73.685 168.002 66.925"/><path d="M180.7021,66.825a3.64,3.64,0,0,1,2.61,1,3.29,3.29,0,0,1,1,2.49,3.24,3.24,0,0,1-1.05,2.48,3.74,3.74,0,0,1-2.65,1,3.53,3.53,0,0,1-2.55-1,3.27,3.27,0,0,1-1-2.46,3.34,3.34,0,0,1,1-2.51A3.58,3.58,0,0,1,180.7021,66.825Zm0,.92a2.63,2.63,0,0,0-1.91.73,2.47,2.47,0,0,0-.75,1.86,2.43,2.43,0,0,0,.75,1.82,2.78,2.78,0,0,0,3.77,0,2.48,2.48,0,0,0,.76-1.85,2.42,2.42,0,0,0-.76-1.81,2.57,2.57,0,0,0-1.82-.75Z"/><path d="M186.4121,73.685v-6.76h1.7a2.45,2.45,0,0,1,1.63.51,1.71,1.71,0,0,1,.6,1.38,1.69,1.69,0,0,1-1.14,1.67,3,3,0,0,1,.63.58,11.6994,11.6994,0,0,1,.87,1.28q.35.58.57.87l.36.48h-1.15l-.3-.45-.06-.08-.19-.27-.3-.49-.32-.53a5.1984,5.1984,0,0,0-.55-.66,2.08,2.08,0,0,0-.45-.36,1.52,1.52,0,0,0-.68-.11h-.25v2.94Zm1.26-5.94h-.29v2.14h.37a2.74,2.74,0,0,0,1-.13,1,1,0,0,0,.43-.38,1.12,1.12,0,0,0,.15-.58,1,1,0,0,0-.17-.58.91.91,0,0,0-.48-.37A3.45,3.45,0,0,0,187.6721,67.745Z"/><rect x="193.2221" y="66.925" width="0.97" height="6.77"/><path d="M200.1821,70.355h2.27v2.87a6.19,6.19,0,0,1-2.48.54,3.68,3.68,0,0,1-2.69-1,3.25,3.25,0,0,1-1-2.42,3.37,3.37,0,0,1,1-2.52,3.6,3.6,0,0,1,2.61-1,4.63,4.63,0,0,1,1.08.12,8.8907,8.8907,0,0,1,1.3.45v1a4.76,4.76,0,0,0-2.4-.7,2.55,2.55,0,0,0-1.87.76,2.68,2.68,0,0,0,0,3.74,2.71,2.71,0,0,0,2,.73,4.56,4.56,0,0,0,1.39-.27h.09v-1.41h-1.3Z"/><path d="M206.8621,66.885h.68l3,6.8h-1l-.9-2h-2.89l-.84,2h-1Zm1.42,3.94-1.09-2.45-1,2.45Z"/><polygon points="217.532 66.925 218.432 66.925 218.432 73.685 217.462 73.685 217.462 68.425 215.382 71.035 215.202 71.035 213.102 68.425 213.102 73.685 212.132 73.685 212.132 66.925 213.042 66.925 215.292 69.705 217.532 66.925"/><rect x="220.7321" y="66.925" width="0.97" height="6.77"/><path d="M224.3721,72.605a.58.58,0,0,1,.42.17.56.56,0,0,1,.17.42.55.55,0,0,1-.17.41.59.59,0,0,1-.42.16.57.57,0,0,1-.42-.16.54.54,0,0,1-.17-.41.58.58,0,0,1,.57-.59Q224.362,72.6048,224.3721,72.605Z"/><path d="M95.7679.4063a.1825.1825,0,0,1,.1934-.1934h1.334a.1825.1825,0,0,1,.1934.1934V5.8a.1022.1022,0,0,0,.1162.1162h5.7031a.1019.1019,0,0,0,.1152-.1162V.4063a.183.183,0,0,1,.1934-.1934h1.334a.1825.1825,0,0,1,.1934.1934v12.76a.1825.1825,0,0,1-.1934.1934h-1.334a.183.183,0,0,1-.1934-.1934V7.6367a.1023.1023,0,0,0-.1152-.1162H97.6048a.1026.1026,0,0,0-.1162.1162V13.166a.1825.1825,0,0,1-.1934.1934h-1.334a.1825.1825,0,0,1-.1934-.1934Z"/><path d="M114.6507.4063c.0391-.1162.0967-.1934.2324-.1934H116.14a.2506.2506,0,0,1,.251.1934l4.5049,12.76a.1325.1325,0,0,1-.1357.1934h-1.3535a.2321.2321,0,0,1-.251-.1934L118.15,10.3047h-5.3164l-1.0049,2.8613a.2609.2609,0,0,1-.252.1934h-1.3525a.1325.1325,0,0,1-.1357-.1934ZM117.5891,8.72l-2.0684-5.9736h-.0391L113.3938,8.72Z"/><path d="M125.84.4063a.1825.1825,0,0,1,.1934-.1934h1.334a.1825.1825,0,0,1,.1934.1934v12.76a.1825.1825,0,0,1-.1934.1934h-1.334a.1825.1825,0,0,1-.1934-.1934Z"/><path d="M141.2845,13.3594c-.1357,0-.1934-.0576-.251-.1934l-2.63-5.375h-2.8994a.1026.1026,0,0,0-.1162.1162V13.166a.1825.1825,0,0,1-.1934.1934h-1.334a.1825.1825,0,0,1-.1934-.1934V.4063a.1825.1825,0,0,1,.1934-.1934h4.7559c2.4551,0,4.1182,1.5078,4.1182,3.7891a3.58,3.58,0,0,1-2.5908,3.5771l2.8027,5.5479a.138.138,0,0,1-.1152.2324Zm-.2705-9.3574c0-1.3721-.9092-2.1846-2.4365-2.1846h-3.0732a.1026.1026,0,0,0-.1162.1162V6.0713a.1019.1019,0,0,0,.1162.1152h3.0732C140.1048,6.1865,141.0139,5.375,141.0139,4.002Z"/><path d="M155.3138,11.9287a.21.21,0,0,1-.02-.29l.8506-1.0049a.173.173,0,0,1,.2705-.02,6.0546,6.0546,0,0,0,3.6729,1.3535c1.8174,0,2.9-.9092,2.9-2.2432,0-1.1211-.6377-1.875-2.7451-2.1455l-.6572-.0967c-2.5518-.3486-3.8672-1.5664-3.8672-3.6348C155.719,1.5088,157.4016,0,160.011,0a6.9678,6.9678,0,0,1,4.002,1.2188.1752.1752,0,0,1,.0391.2705l-.6572,1.0635a.1883.1883,0,0,1-.2705.0381,5.8158,5.8158,0,0,0-3.1709-.9854c-1.6045,0-2.4941.8691-2.4941,2.126,0,1.1025.7344,1.8369,2.7646,2.1074l.6377.0967c2.5713.3477,3.8672,1.5273,3.8672,3.6729,0,2.3008-1.624,3.9639-4.7949,3.9639A7.2215,7.2215,0,0,1,155.3138,11.9287Z"/><path d="M174.0227.4063c.0391-.1162.0967-.1934.2324-.1934h1.2568a.2506.2506,0,0,1,.251.1934l4.5049,12.76a.1325.1325,0,0,1-.1357.1934h-1.3535a.2321.2321,0,0,1-.251-.1934l-1.0059-2.8613h-5.3164L171.2,13.166a.2609.2609,0,0,1-.252.1934H169.596a.1325.1325,0,0,1-.1357-.1934ZM176.9612,8.72l-2.0684-5.9736h-.0391L172.7659,8.72Z"/><path d="M185.5989.4063a.1825.1825,0,0,1,.1934-.1934h1.334a.1825.1825,0,0,1,.1934.1934V11.6387a.1026.1026,0,0,0,.1162.1162h6.2637a.1825.1825,0,0,1,.1934.1934V13.166a.1825.1825,0,0,1-.1934.1934h-7.9072a.1825.1825,0,0,1-.1934-.1934Z"/><path d="M199.1263,10.498a11.29,11.29,0,0,1-.3477-3.7119,11.29,11.29,0,0,1,.3477-3.7119,4.795,4.795,0,0,1,8.9512,0,11.29,11.29,0,0,1,.3477,3.7119,11.29,11.29,0,0,1-.3477,3.7119,4.795,4.795,0,0,1-8.9512,0Zm7.27-.4834a11.2789,11.2789,0,0,0,.29-3.2285,11.2789,11.2789,0,0,0-.29-3.2285,2.9754,2.9754,0,0,0-5.5879,0,11.2947,11.2947,0,0,0-.2891,3.2285,11.2947,11.2947,0,0,0,.2891,3.2285,2.9749,2.9749,0,0,0,5.5879,0Z"/><path d="M214.4524.4063a.1825.1825,0,0,1,.1934-.1934h1.2373a.3131.3131,0,0,1,.3281.1934l5.9551,9.8594h.0771V.4063a.1825.1825,0,0,1,.1934-.1934h1.2178a.1825.1825,0,0,1,.1934.1934v12.76a.1825.1825,0,0,1-.1934.1934h-1.2373a.3278.3278,0,0,1-.3281-.1934l-5.9746-9.8213h-.0576V13.166a.1825.1825,0,0,1-.1934.1934h-1.2178a.1825.1825,0,0,1-.1934-.1934Z"/></svg>