<svg id="レイヤー_1" data-name="レイヤー 1" xmlns="http://www.w3.org/2000/svg" width="100" height="100" viewBox="0 0 100 100"><defs><style>.cls-1{fill:#fff;}</style></defs><title>icon</title><polygon class="cls-1" points="41.747 82.483 41.747 82.482 41.746 82.482 41.747 82.483"/><polygon class="cls-1" points="73.121 57.915 73.123 57.916 73.124 57.916 73.121 57.915"/><polygon class="cls-1" points="31.116 39.168 31.117 39.166 31.118 39.164 31.116 39.168"/><path class="cls-1" d="M86.3922,69.1945c-.0169-.0244-.0235-.0545-.0416-.0781l-.103-.1348-.001-.0012A38.6042,38.6042,0,0,0,73.1228,57.9158a10.6659,10.6659,0,0,0-4.8669-1.2234H68.235A10.5012,10.5012,0,0,0,61.45,59.3131l-.0052.0036-.0052.0046-.0015.0012h0c-1.6705,1.407-3.2335,2.8821-4.7343,4.353l-.0016.0013a3.1456,3.1456,0,0,1-.8536.6243,1.4731,1.4731,0,0,1-.6214.1354,1.9626,1.9626,0,0,1-.5187-.0773l-.0015.0056-.0189-.0046.0015-.0056a12.0014,12.0014,0,0,1-1.6077-.5442,3.6954,3.6954,0,0,1-.9075-.5129l-.0286-.025-.0034-.0029-.0026-.0018c-3.1083-2.6909-6.1194-5.4349-8.86-8.3348a27.47,27.47,0,0,1-6.0144-9.1369h0l-.0007-.0025a6.081,6.081,0,0,1-.4684-2.0017,1.8063,1.8063,0,0,1,.0584-.4885,1.7621,1.7621,0,0,1,.2054-.4373,6.1562,6.1562,0,0,1,1.5341-1.5024h0l.0047-.0033.0234-.0189,0,0,.0088-.0068,0-.0005.018-.0145.0079-.0051.0078-.0063.0063-.0063c1.5305-1.1586,2.9363-2.3905,4.2661-3.5991.02-.018.0371-.0383.0571-.0565l.0173-.0142.001-.001.0134-.0162a10.0933,10.0933,0,0,0,3.3822-7.3625H46.41l.0015-.0735V30.14a11.2029,11.2029,0,0,0-.5673-3.4584l0-.0008a37.7061,37.7061,0,0,0-9.0451-14.6146l-.0172-.0165-.0077-.009,0,0-.0123-.01a9.6851,9.6851,0,0,0-2.7426-2.0087,7.755,7.755,0,0,0-3.3614-.7808h-.02a8.2452,8.2452,0,0,0-3.19.6639,11.03,11.03,0,0,0-2.7274,1.6787l0,0-.1821.15c-.0109.009-.0184.0207-.0291.03-.4589.3887-.8444.73-1.12.9417l-.0014.0012a33.8211,33.8211,0,0,0-6.05,5.9163,24.8778,24.8778,0,0,0-4.1379,7.7962,29.832,29.832,0,0,0-1.4233,9.092,35.4342,35.4342,0,0,0,3.4719,14.7776v0C21.24,63.3893,30.4423,73.96,41.7469,82.4822c6.25,4.7284,13.5046,8.0424,21.9372,8.2729l.01,0,.0854.002h-.0013l.0415.001a1.8012,1.8012,0,0,0,.3176-.0179l.1216-.0166.0043-.0005c1.691-.2366,3.6113-.3943,5.6652-.8042a24.0018,24.0018,0,0,0,9.1026-4.01,47.7386,47.7386,0,0,0,6.8674-6.09l.0079-.01a7.8625,7.8625,0,0,0,2.3091-5.31c.0043-.0655.007-.1058.0068-.126l0-.0083V74.343A8.7446,8.7446,0,0,0,86.3922,69.1945ZM63.665,83.7435a27.3908,27.3908,0,0,1-9.231-1.9616,36.7893,36.7893,0,0,1-8.4721-4.8874l.0016.0013c-10.5516-7.9667-18.89-17.6-24.35-29.5207v0A28.4563,28.4563,0,0,1,18.7773,35.51a22.7676,22.7676,0,0,1,1.0942-6.9689A17.8877,17.8877,0,0,1,22.863,22.92,27.1019,27.1019,0,0,1,27.68,18.2363l.0024-.0021h0c.6235-.4873,1.11-.9379,1.4648-1.2276l.0179-.0145a4.1547,4.1547,0,0,1,.99-.6321,1.2586,1.2586,0,0,1,.4725-.1183.8005.8005,0,0,1,.3638.088,3.0128,3.0128,0,0,1,.7845.6121A30.697,30.697,0,0,1,39.187,28.8446v0a4.2115,4.2115,0,0,1,.224,1.2838,2.8164,2.8164,0,0,1-.25,1.1855,3.9491,3.9491,0,0,1-.94,1.2153c-1.2844,1.1684-2.5515,2.2744-3.8332,3.2377h0l-.0023.0012a12.976,12.976,0,0,0-3.22,3.3281c-.0118.017-.0249.0332-.0361.0505l-.0131.0186a8.5652,8.5652,0,0,0-1.3212,4.58h0v.0052h0v.0053h0v.03l0,.0049h0l.0009.0145.0013.0537H29.8a12.8838,12.8838,0,0,0,.9084,4.389l.0006.0016A34.376,34.376,0,0,0,38.1931,59.74l-.0009-.0009a127.9443,127.9443,0,0,0,9.3769,8.83l0,0,.0118.0109a13.4509,13.4509,0,0,0,5.2455,2.5219l.0026-.009.0153.0047-.0024.0089c.033.0091.0673.0122.1.0209.0242.0054.048.0106.0723.0151a8.9073,8.9073,0,0,0,2.21.2955h.0264a9.0254,9.0254,0,0,0,6.3317-2.7446l.0046-.0037c1.4387-1.41,2.8826-2.7677,4.36-4.0132l.001-.0005a4.5962,4.5962,0,0,1,1.2456-.7764,2.8545,2.8545,0,0,1,1.0607-.2063,3.6606,3.6606,0,0,1,1.6827.457,31.6,31.6,0,0,1,10.75,9.0871,2.0553,2.0553,0,0,1,.533,1.0914.4523.4523,0,0,1-.0372.1884,1.7549,1.7549,0,0,1-.3387.4571,40.8444,40.8444,0,0,1-5.8273,5.1993,17.0143,17.0143,0,0,1-6.4708,2.8832C67.1138,83.3483,65.4582,83.5084,63.665,83.7435ZM36.7958,43.7863v0Z"/><polygon class="cls-1" points="42.943 37.698 42.937 37.703 42.936 37.704 42.943 37.698"/><polygon points="13.2 26.419 13.201 26.418 13.201 26.418 13.2 26.419"/><polygon class="cls-1" points="36.796 12.062 36.799 12.066 36.802 12.069 36.796 12.062"/></svg>